<svg width="20" height="20" viewBox="0 0 20 20" fill="none" xmlns="http://www.w3.org/2000/svg">
<path d="M9.99993 13.7501C8.02467 13.7501 6.42571 12.2212 6.27858 10.2837L3.54681 8.17247C3.18769 8.623 2.85723 9.0993 2.59056 9.62013C2.53099 9.73797 2.49995 9.86817 2.49995 10.0002C2.49995 10.1323 2.53099 10.2624 2.59056 10.3803C4.0028 13.1358 6.79863 15.0001 9.99993 15.0001C10.7007 15.0001 11.3768 14.8959 12.0283 14.7277L10.677 13.6821C10.4538 13.7252 10.2272 13.748 9.99993 13.7501ZM18.1723 15.2631L15.2934 13.0381C16.1679 12.3011 16.8872 11.3976 17.4093 10.38C17.4689 10.2622 17.4999 10.132 17.4999 9.99995C17.4999 9.86791 17.4689 9.73771 17.4093 9.61987C15.9971 6.8644 13.2012 5.00008 9.99993 5.00008C8.65918 5.0017 7.3402 5.33924 6.16347 5.98185L2.85045 3.42117C2.80725 3.38755 2.75785 3.36278 2.70507 3.34826C2.65229 3.33375 2.59716 3.32977 2.54284 3.33657C2.48853 3.34336 2.43608 3.3608 2.3885 3.38787C2.34092 3.41494 2.29915 3.45112 2.26556 3.49435L1.75436 4.15242C1.68655 4.23966 1.65616 4.35026 1.66988 4.45989C1.68361 4.56953 1.74032 4.66923 1.82754 4.73706L17.1494 16.579C17.1926 16.6126 17.242 16.6374 17.2948 16.6519C17.3476 16.6664 17.4027 16.6704 17.457 16.6636C17.5113 16.6568 17.5638 16.6394 17.6114 16.6123C17.6589 16.5852 17.7007 16.549 17.7343 16.5058L18.2458 15.8477C18.3136 15.7605 18.3439 15.6498 18.3301 15.5402C18.3164 15.4306 18.2596 15.3309 18.1723 15.2631ZM13.388 11.5652L12.3645 10.774C12.4507 10.5249 12.4964 10.2636 12.4999 10.0001C12.505 9.61421 12.4195 9.23253 12.2503 8.88569C12.0812 8.53885 11.833 8.23653 11.5258 8.003C11.2185 7.76947 10.8608 7.61125 10.4814 7.54105C10.1019 7.47085 9.71126 7.49062 9.34082 7.59878C9.49785 7.81156 9.5828 8.06895 9.58327 8.33341C9.57938 8.42142 9.56593 8.50873 9.54316 8.59383L7.62624 7.11232C8.29212 6.55586 9.13215 6.25072 9.99993 6.25008C10.4925 6.2498 10.9802 6.34661 11.4353 6.53497C11.8904 6.72333 12.3039 6.99954 12.6522 7.34782C13.0005 7.69609 13.2767 8.1096 13.465 8.56469C13.6534 9.01979 13.7502 9.50754 13.7499 10.0001C13.7499 10.5634 13.6122 11.0884 13.388 11.5654V11.5652Z" fill="#9FA2B4"/>
</svg>
